<svg width="200" height="200" viewBox="0 0 200 200" fill="none" xmlns="http://www.w3.org/2000/svg">
<rect width="200" height="200" fill="white"/>
<path fill-rule="evenodd" clip-rule="evenodd" d="M180.5 118.973C180.5 156.973 142.5 198.473 101.5 199.973C55.415 201.659 18 165.089 18 118.973C18 72.8573 55.3842 35.4731 101.5 35.4731C119.673 35.4731 110.292 32.6153 124 42.4731L97.5 69.4731C93.7451 68.0171 87.5 69.4731 81 70.9731C59.5 77.9731 50 95.4715 50 113.973C50 122.393 65 138.973 76.2357 140.973C82.3772 148.02 91.4185 152.473 101.5 152.473C120.002 152.473 135 137.475 135 118.973C135 115.879 134.581 112.883 133.796 110.039L171.064 72.7708C179.869 86.0018 180.5 101.888 180.5 118.973Z" fill="#FF9973"/>
<path fill-rule="evenodd" clip-rule="evenodd" d="M87.5 184.473C129.198 184.473 163 150.671 163 108.973C163 97.0633 160.247 85.8109 155.345 75.8036L152 79.1482L133 98.1482L128.517 102.631C128.835 104.702 129 106.82 129 108.973C129 131.893 110.42 150.473 87.5 150.473C64.5802 150.473 46 131.893 46 108.973C46 86.0533 64.5802 67.4731 87.5 67.4731C90.893 67.4731 94.1983 67.8819 97.366 68.6549L101.048 64.9731L123.455 42.5658C112.768 36.7661 100.526 33.4731 87.5 33.4731C45.8025 33.4731 12 67.2756 12 108.973C12 150.671 45.8025 184.473 87.5 184.473ZM129.33 36.6904C117.03 29.5571 102.742 25.4731 87.5 25.4731C41.3842 25.4731 4 62.8573 4 108.973C4 155.089 41.3842 192.473 87.5 192.473C133.616 192.473 171 155.089 171 108.973C171 94.8396 167.489 81.5262 161.29 69.8578C159.996 67.4213 158.5 65.9731 156 65.9731C153.5 65.9731 151 68.8345 151 68.8345L124.861 94.9731C124.861 94.9731 122.204 96.9072 121.5 99.9731C120.796 103.039 121 105.879 121 108.973C121 127.475 106.002 142.473 87.5 142.473C68.9985 142.473 54 127.475 54 108.973C54 90.4715 68.9985 75.4731 87.5 75.4731C91.7692 75.4731 97 76.9731 99 76.4731C101 75.9731 102.861 74.4731 102.861 74.4731L130.5 46.8345C130.5 46.8345 132.5 45.4731 132.5 42.5658C132.5 39.6586 131.696 38.0622 129.33 36.6904Z" fill="#3217FF"/>
<circle cx="171.5" cy="27.5" r="16.5" fill="#FF9973"/>
<circle cx="88.5" cy="109.5" r="16.5" fill="#FF9973"/>
<path fill-rule="evenodd" clip-rule="evenodd" d="M158.337 45.8468C167.309 52.1419 179.773 51.2808 187.79 43.2635C196.772 34.2814 196.772 19.7186 187.79 10.7365C178.808 1.75449 164.245 1.75449 155.263 10.7365C147.246 18.7539 146.385 31.2175 152.68 40.19L101.717 91.1532C92.7444 84.8581 80.2808 85.7192 72.2635 93.7365C63.2814 102.719 63.2814 117.281 72.2635 126.263C81.2455 135.245 95.8083 135.245 104.79 126.263C112.808 118.246 113.669 105.782 107.374 96.81L158.337 45.8468ZM160.92 37.6066C166.778 43.4645 176.276 43.4645 182.133 37.6066C187.991 31.7487 187.991 22.2513 182.133 16.3934C176.276 10.5355 166.778 10.5355 160.92 16.3934C155.062 22.2513 155.062 31.7487 160.92 37.6066ZM77.9203 120.607C83.7782 126.464 93.2757 126.464 99.1335 120.607C104.991 114.749 104.991 105.251 99.1335 99.3934C93.2757 93.5355 83.7782 93.5355 77.9203 99.3934C72.0625 105.251 72.0625 114.749 77.9203 120.607Z" fill="#3217FF"/>
</svg>
